<mxfile host="app.diagrams.net" modified="2023-10-11T07:19:07.743Z" agent="Mozilla/5.0 (Macintosh; Intel Mac OS X 10_15_7) AppleWebKit/537.36 (KHTML, like Gecko) Chrome/117.0.0.0 Safari/537.36" etag="Xvnm38Vs0vYw5mDIjRKJ" version="22.0.4" type="github">
  <diagram name="Page-1" id="Ulro9xFsLlpFCQsZJ0gW">
    <mxGraphModel dx="1242" dy="828" grid="1" gridSize="10" guides="1" tooltips="1" connect="1" arrows="1" fold="1" page="1" pageScale="1" pageWidth="850" pageHeight="1100" math="0" shadow="0">
      <root>
        <mxCell id="0" />
        <mxCell id="1" parent="0" />
        <mxCell id="lc30SOUPh5aGIYC9PWeb-1" value="" style="whiteSpace=wrap;html=1;aspect=fixed;" vertex="1" parent="1">
          <mxGeometry x="135" y="100" width="580" height="580" as="geometry" />
        </mxCell>
        <mxCell id="lc30SOUPh5aGIYC9PWeb-30" style="edgeStyle=orthogonalEdgeStyle;rounded=0;orthogonalLoop=1;jettySize=auto;html=1;exitX=0;exitY=0.3333333333333333;exitDx=0;exitDy=0;exitPerimeter=0;entryX=1;entryY=0.5;entryDx=0;entryDy=0;" edge="1" parent="1" source="lc30SOUPh5aGIYC9PWeb-2" target="lc30SOUPh5aGIYC9PWeb-27">
          <mxGeometry relative="1" as="geometry" />
        </mxCell>
        <mxCell id="lc30SOUPh5aGIYC9PWeb-31" style="edgeStyle=orthogonalEdgeStyle;rounded=0;orthogonalLoop=1;jettySize=auto;html=1;exitX=0;exitY=1;exitDx=0;exitDy=0;exitPerimeter=0;entryX=1;entryY=0.5;entryDx=0;entryDy=0;" edge="1" parent="1" source="lc30SOUPh5aGIYC9PWeb-2" target="lc30SOUPh5aGIYC9PWeb-28">
          <mxGeometry relative="1" as="geometry" />
        </mxCell>
        <mxCell id="lc30SOUPh5aGIYC9PWeb-32" style="edgeStyle=orthogonalEdgeStyle;rounded=0;orthogonalLoop=1;jettySize=auto;html=1;exitX=1;exitY=1;exitDx=0;exitDy=0;exitPerimeter=0;entryX=1;entryY=0.5;entryDx=0;entryDy=0;" edge="1" parent="1" source="lc30SOUPh5aGIYC9PWeb-2" target="lc30SOUPh5aGIYC9PWeb-29">
          <mxGeometry relative="1" as="geometry" />
        </mxCell>
        <mxCell id="lc30SOUPh5aGIYC9PWeb-2" value="PSE Onboarder" style="shape=umlActor;verticalLabelPosition=bottom;verticalAlign=top;html=1;" vertex="1" parent="1">
          <mxGeometry x="750" y="130" width="30" height="60" as="geometry" />
        </mxCell>
        <mxCell id="lc30SOUPh5aGIYC9PWeb-10" style="edgeStyle=orthogonalEdgeStyle;rounded=0;orthogonalLoop=1;jettySize=auto;html=1;exitX=1;exitY=0.3333333333333333;exitDx=0;exitDy=0;exitPerimeter=0;entryX=0;entryY=0.5;entryDx=0;entryDy=0;" edge="1" parent="1" source="lc30SOUPh5aGIYC9PWeb-3" target="lc30SOUPh5aGIYC9PWeb-9">
          <mxGeometry relative="1" as="geometry" />
        </mxCell>
        <mxCell id="lc30SOUPh5aGIYC9PWeb-11" style="edgeStyle=orthogonalEdgeStyle;rounded=0;orthogonalLoop=1;jettySize=auto;html=1;exitX=1;exitY=1;exitDx=0;exitDy=0;exitPerimeter=0;entryX=0;entryY=0.5;entryDx=0;entryDy=0;" edge="1" parent="1" source="lc30SOUPh5aGIYC9PWeb-3" target="lc30SOUPh5aGIYC9PWeb-6">
          <mxGeometry relative="1" as="geometry" />
        </mxCell>
        <mxCell id="lc30SOUPh5aGIYC9PWeb-12" style="edgeStyle=orthogonalEdgeStyle;rounded=0;orthogonalLoop=1;jettySize=auto;html=1;exitX=0;exitY=1;exitDx=0;exitDy=0;exitPerimeter=0;" edge="1" parent="1" source="lc30SOUPh5aGIYC9PWeb-3" target="lc30SOUPh5aGIYC9PWeb-8">
          <mxGeometry relative="1" as="geometry" />
        </mxCell>
        <mxCell id="lc30SOUPh5aGIYC9PWeb-13" style="edgeStyle=orthogonalEdgeStyle;rounded=0;orthogonalLoop=1;jettySize=auto;html=1;exitX=0.5;exitY=0;exitDx=0;exitDy=0;exitPerimeter=0;entryX=0;entryY=0.5;entryDx=0;entryDy=0;" edge="1" parent="1" source="lc30SOUPh5aGIYC9PWeb-3" target="lc30SOUPh5aGIYC9PWeb-7">
          <mxGeometry relative="1" as="geometry" />
        </mxCell>
        <mxCell id="lc30SOUPh5aGIYC9PWeb-3" value="Super Admin" style="shape=umlActor;verticalLabelPosition=bottom;verticalAlign=top;html=1;" vertex="1" parent="1">
          <mxGeometry x="60" y="180" width="30" height="60" as="geometry" />
        </mxCell>
        <mxCell id="lc30SOUPh5aGIYC9PWeb-15" style="edgeStyle=orthogonalEdgeStyle;rounded=0;orthogonalLoop=1;jettySize=auto;html=1;entryX=0.5;entryY=0;entryDx=0;entryDy=0;" edge="1" parent="1" source="lc30SOUPh5aGIYC9PWeb-4" target="lc30SOUPh5aGIYC9PWeb-7">
          <mxGeometry relative="1" as="geometry" />
        </mxCell>
        <mxCell id="lc30SOUPh5aGIYC9PWeb-16" style="edgeStyle=orthogonalEdgeStyle;rounded=0;orthogonalLoop=1;jettySize=auto;html=1;exitX=0.5;exitY=0;exitDx=0;exitDy=0;exitPerimeter=0;" edge="1" parent="1" source="lc30SOUPh5aGIYC9PWeb-4" target="lc30SOUPh5aGIYC9PWeb-8">
          <mxGeometry relative="1" as="geometry" />
        </mxCell>
        <mxCell id="lc30SOUPh5aGIYC9PWeb-20" style="edgeStyle=orthogonalEdgeStyle;rounded=0;orthogonalLoop=1;jettySize=auto;html=1;exitX=0.75;exitY=0.1;exitDx=0;exitDy=0;exitPerimeter=0;entryX=0.5;entryY=0;entryDx=0;entryDy=0;" edge="1" parent="1" source="lc30SOUPh5aGIYC9PWeb-4" target="lc30SOUPh5aGIYC9PWeb-18">
          <mxGeometry relative="1" as="geometry" />
        </mxCell>
        <mxCell id="lc30SOUPh5aGIYC9PWeb-21" style="edgeStyle=orthogonalEdgeStyle;rounded=0;orthogonalLoop=1;jettySize=auto;html=1;exitX=0;exitY=1;exitDx=0;exitDy=0;exitPerimeter=0;entryX=0.5;entryY=1;entryDx=0;entryDy=0;" edge="1" parent="1" source="lc30SOUPh5aGIYC9PWeb-4" target="lc30SOUPh5aGIYC9PWeb-17">
          <mxGeometry relative="1" as="geometry">
            <Array as="points">
              <mxPoint x="50" y="720" />
              <mxPoint x="520" y="720" />
            </Array>
          </mxGeometry>
        </mxCell>
        <mxCell id="lc30SOUPh5aGIYC9PWeb-4" value="Onboarding Manager" style="shape=umlActor;verticalLabelPosition=bottom;verticalAlign=top;html=1;" vertex="1" parent="1">
          <mxGeometry x="50" y="530" width="30" height="60" as="geometry" />
        </mxCell>
        <mxCell id="lc30SOUPh5aGIYC9PWeb-6" value="Add onboarding manager" style="ellipse;whiteSpace=wrap;html=1;" vertex="1" parent="1">
          <mxGeometry x="200" y="250" width="140" height="70" as="geometry" />
        </mxCell>
        <mxCell id="lc30SOUPh5aGIYC9PWeb-7" value="Add PSE Onboarder" style="ellipse;whiteSpace=wrap;html=1;" vertex="1" parent="1">
          <mxGeometry x="190" y="580" width="140" height="70" as="geometry" />
        </mxCell>
        <mxCell id="lc30SOUPh5aGIYC9PWeb-8" value="Remove PSE Onboarder" style="ellipse;whiteSpace=wrap;html=1;" vertex="1" parent="1">
          <mxGeometry x="300" y="480" width="140" height="70" as="geometry" />
        </mxCell>
        <mxCell id="lc30SOUPh5aGIYC9PWeb-9" value="Remove onboarding manager" style="ellipse;whiteSpace=wrap;html=1;" vertex="1" parent="1">
          <mxGeometry x="200" y="140" width="140" height="70" as="geometry" />
        </mxCell>
        <mxCell id="lc30SOUPh5aGIYC9PWeb-17" value="Add content" style="ellipse;whiteSpace=wrap;html=1;" vertex="1" parent="1">
          <mxGeometry x="450" y="590" width="140" height="70" as="geometry" />
        </mxCell>
        <mxCell id="lc30SOUPh5aGIYC9PWeb-18" value="Add new page" style="ellipse;whiteSpace=wrap;html=1;" vertex="1" parent="1">
          <mxGeometry x="450" y="480" width="140" height="70" as="geometry" />
        </mxCell>
        <mxCell id="lc30SOUPh5aGIYC9PWeb-19" value="&amp;lt;&amp;lt;includes&amp;gt;&amp;gt;" style="html=1;verticalAlign=bottom;endArrow=open;dashed=1;endSize=8;curved=0;rounded=0;exitX=0.5;exitY=1;exitDx=0;exitDy=0;entryX=0.5;entryY=0;entryDx=0;entryDy=0;" edge="1" parent="1" source="lc30SOUPh5aGIYC9PWeb-18" target="lc30SOUPh5aGIYC9PWeb-17">
          <mxGeometry relative="1" as="geometry">
            <mxPoint x="460" y="430" as="sourcePoint" />
            <mxPoint x="380" y="430" as="targetPoint" />
          </mxGeometry>
        </mxCell>
        <mxCell id="lc30SOUPh5aGIYC9PWeb-27" value="View content" style="ellipse;whiteSpace=wrap;html=1;" vertex="1" parent="1">
          <mxGeometry x="425" y="120" width="140" height="70" as="geometry" />
        </mxCell>
        <mxCell id="lc30SOUPh5aGIYC9PWeb-28" value="Mark content viewed" style="ellipse;whiteSpace=wrap;html=1;" vertex="1" parent="1">
          <mxGeometry x="425" y="210" width="140" height="70" as="geometry" />
        </mxCell>
        <mxCell id="lc30SOUPh5aGIYC9PWeb-29" value="Raise complaint&lt;br&gt;(sent via email)" style="ellipse;whiteSpace=wrap;html=1;" vertex="1" parent="1">
          <mxGeometry x="425" y="300" width="140" height="70" as="geometry" />
        </mxCell>
      </root>
    </mxGraphModel>
  </diagram>
</mxfile>
